<?xml version="1.0" standalone="no"?>
<!DOCTYPE svg PUBLIC "-//W3C//DTD SVG 20010904//EN"
 "http://www.w3.org/TR/2001/REC-SVG-20010904/DTD/svg10.dtd">
<svg version="1.0" xmlns="http://www.w3.org/2000/svg"
 width="740.000000pt" height="740.000000pt" viewBox="0 0 740.000000 740.000000"
 preserveAspectRatio="xMidYMid meet">

<g transform="translate(0.000000,740.000000) scale(0.100000,-0.100000)"
fill="#000000" stroke="none">
<path d="M3612 6223 c-28 -76 -52 -144 -52 -151 0 -9 12 -12 38 -10 29 2 38 8
40 24 3 18 12 23 55 28 29 4 57 7 62 7 6 0 14 -13 19 -30 8 -28 13 -31 47 -31
22 0 39 4 39 9 0 5 -22 71 -49 148 l-48 138 -49 3 -49 3 -53 -138z m124 -29
c-4 -11 -52 -25 -60 -17 -2 3 1 19 8 36 7 18 16 41 21 52 6 17 9 14 21 -20 8
-22 12 -45 10 -51z"/>
<path d="M3391 6336 c-9 -11 -9 -29 -1 -76 6 -34 9 -64 7 -66 -3 -3 -30 25
-62 61 -46 52 -63 65 -87 65 -17 0 -31 -6 -35 -17 -4 -9 1 -66 11 -127 24
-156 25 -156 51 -156 51 0 53 5 39 83 -6 40 -11 73 -9 75 1 2 29 -26 61 -62
49 -55 64 -66 91 -66 17 0 34 4 37 8 3 4 -5 72 -16 150 l-22 142 -27 0 c-14 0
-32 -6 -38 -14z"/>
<path d="M3952 6338 c-7 -7 -12 -22 -12 -35 0 -20 5 -23 34 -23 19 0 37 -4 40
-9 4 -5 -2 -57 -11 -115 -9 -58 -15 -107 -12 -110 2 -2 20 -7 40 -11 l36 -7
17 107 c9 58 14 111 10 116 -4 6 12 8 44 3 48 -6 50 -5 56 21 4 15 3 31 -1 35
-8 7 -184 40 -215 40 -8 0 -19 -5 -26 -12z"/>
<path d="M4291 6263 c-10 -20 -71 -243 -71 -261 0 -10 67 -29 75 -21 2 2 20
66 41 142 33 118 36 140 24 147 -24 15 -59 11 -69 -7z"/>
<path d="M2932 6237 c-35 -12 -67 -29 -71 -37 -7 -13 66 -260 81 -275 9 -10
68 17 68 31 0 8 -7 31 -15 51 -18 44 -19 40 6 46 15 4 33 -6 65 -35 37 -34 47
-39 73 -33 47 10 48 25 2 68 -39 36 -42 42 -32 64 17 38 13 80 -12 108 -31 37
-85 40 -165 12z m102 -69 c13 -21 -6 -43 -45 -53 -23 -6 -28 -2 -38 26 -14 40
-14 37 7 42 31 9 65 2 76 -15z"/>
<path d="M4471 6172 c-28 -28 -71 -126 -71 -163 0 -43 31 -80 86 -106 94 -43
151 -15 193 93 28 74 27 106 -6 145 -54 64 -154 80 -202 31z m133 -61 c19 -21
17 -37 -16 -108 -11 -23 -26 -44 -34 -47 -20 -8 -60 9 -67 28 -7 16 25 110 45
133 16 19 53 16 72 -6z"/>
<path d="M2639 6115 c-48 -24 -89 -51 -93 -60 -5 -14 89 -218 116 -252 7 -9
34 0 109 37 54 28 99 53 99 56 0 5 -19 45 -25 52 -2 2 -30 -10 -64 -27 -71
-37 -73 -37 -89 -11 -11 18 -8 22 37 45 60 30 64 36 45 63 l-15 22 -50 -26
c-49 -24 -51 -24 -65 -7 -7 10 -14 21 -14 24 0 3 27 18 61 34 33 16 63 33 65
36 5 9 -17 59 -25 58 -3 0 -45 -20 -92 -44z"/>
<path d="M4761 5947 c-39 -63 -71 -118 -71 -124 0 -14 48 -45 59 -39 4 3 23
30 42 61 18 30 36 55 39 55 3 0 6 -39 8 -88 3 -74 6 -90 24 -105 12 -10 26
-16 32 -14 13 4 155 227 156 244 0 16 -38 36 -56 29 -7 -3 -31 -31 -51 -63
l-38 -58 -3 94 c-3 101 -11 121 -48 121 -18 0 -36 -22 -93 -113z"/>
<path d="M2351 5945 c-41 -30 -83 -63 -94 -74 -19 -19 -19 -21 -3 -46 l17 -26
26 21 c14 11 32 20 39 20 7 0 41 -40 75 -90 65 -94 64 -94 112 -56 17 13 15
19 -43 100 -33 47 -65 88 -71 92 -6 3 5 16 25 30 20 14 36 30 36 37 -1 16 -25
47 -36 46 -5 0 -42 -25 -83 -54z"/>
<path d="M3522 5889 c-659 -63 -1237 -502 -1481 -1124 -75 -190 -110 -365
-118 -586 -18 -484 147 -922 481 -1284 48 -52 84 -95 79 -95 -4 0 -115 -18
-246 -40 -130 -22 -239 -40 -241 -40 -2 0 -11 -50 -21 -112 l-18 -111 44 -38
c24 -21 50 -39 57 -39 18 0 18 -459 0 -482 -7 -9 -30 -21 -51 -28 -21 -7 -40
-17 -43 -24 -4 -12 -41 -310 -39 -313 1 -2 44 11 96 27 154 48 258 69 390 80
186 15 331 62 418 136 17 14 34 25 36 22 2 -2 0 -29 -4 -61 -4 -31 -5 -57 -2
-57 3 0 56 9 116 20 177 33 609 53 617 30 2 -7 37 -7 108 1 114 13 433 6 555
-12 39 -5 147 -14 240 -18 173 -9 353 -32 446 -57 12 -3 18 5 23 31 l7 36 45
-40 c25 -22 64 -47 87 -55 35 -13 327 -50 334 -42 1 1 10 50 18 109 l16 107
-32 41 c-19 24 -43 42 -60 46 -16 3 -40 17 -53 30 -27 26 -116 165 -116 179 0
5 20 29 45 53 62 61 88 118 93 210 3 61 0 87 -18 134 -53 141 -183 237 -363
269 l-57 10 69 73 c241 254 395 547 468 894 24 113 27 148 27 336 1 220 -5
278 -51 460 -124 498 -487 939 -958 1161 -291 137 -620 194 -943 163z m313
-80 c235 -20 435 -77 646 -185 352 -181 646 -503 793 -870 186 -463 163 -973
-65 -1414 -81 -157 -174 -284 -300 -414 l-107 -109 -78 6 c-42 4 -80 9 -83 12
-2 3 5 12 17 21 156 109 331 323 437 533 87 174 157 443 154 589 l-2 57 -7
-71 c-25 -240 -118 -493 -255 -699 -66 -98 -195 -246 -261 -300 -44 -35 -42
-32 23 37 39 42 90 109 112 150 52 94 105 254 126 388 9 58 28 141 41 185 67
228 72 494 14 731 -61 246 -179 453 -360 635 -199 199 -428 324 -710 385 -120
26 -419 26 -540 0 -187 -40 -358 -113 -521 -222 -86 -57 -256 -223 -328 -319
-100 -136 -206 -383 -242 -570 -22 -109 -19 -408 5 -520 38 -182 111 -354 220
-515 55 -82 202 -239 278 -297 l48 -37 0 -82 c0 -46 -4 -85 -9 -88 -11 -7
-145 88 -233 166 -119 106 -259 290 -336 444 -67 133 -130 353 -152 524 -9 75
-9 75 -5 -25 16 -333 195 -708 461 -966 77 -74 237 -199 255 -199 5 0 9 -13 9
-30 l0 -30 -45 35 c-50 38 -128 65 -187 65 -34 0 -47 8 -119 78 -681 649 -705
1727 -54 2401 146 151 285 254 459 341 242 122 456 175 751 188 17 1 84 -3
150 -9z m-375 -756 c0 -2 -4 -3 -9 -3 -8 0 -52 156 -50 182 0 9 56 -162 59
-179z m250 -4 c0 -106 -4 -169 -10 -169 -6 0 -10 65 -10 176 0 114 3 173 10
169 6 -4 10 -73 10 -176z m249 0 c-24 -96 -48 -181 -56 -189 -9 -10 -13 -11
-13 -2 0 20 103 373 107 368 2 -2 -15 -82 -38 -177z m294 14 c-21 -38 -58
-106 -84 -153 -26 -47 -54 -87 -64 -88 -11 -3 0 22 36 80 29 45 68 110 87 143
19 33 39 66 45 73 22 28 15 8 -20 -55z m-1053 -68 c0 -20 -20 4 -45 53 -42 82
-42 85 4 15 23 -34 41 -65 41 -68z m307 -20 c63 -26 93 -63 108 -133 6 -31 5
-34 -17 -32 -47 4 -66 -1 -102 -25 -29 -20 -45 -24 -74 -19 -25 4 -43 1 -57
-10 -19 -15 -19 -15 11 -10 23 4 37 0 58 -18 l28 -23 39 37 c34 32 46 38 85
38 25 0 56 -7 71 -17 26 -17 26 -17 14 5 -6 12 -16 22 -22 22 -6 0 -7 5 -4 10
3 6 26 10 51 10 46 0 91 -17 113 -44 11 -13 16 -13 44 5 42 25 88 24 121 -2
l28 -22 -30 -14 c-17 -8 -33 -21 -36 -28 -3 -10 2 -9 23 2 50 29 121 -9 121
-65 0 -36 8 -44 32 -31 26 14 51 -7 45 -38 -5 -28 -1 -29 13 -3 15 29 4 58
-30 75 -15 8 -31 26 -34 40 -4 14 -20 34 -37 44 -37 22 -23 36 26 27 36 -7 85
-55 85 -84 1 -9 15 -26 33 -37 134 -85 81 -285 -77 -285 -62 0 -104 23 -136
76 l-24 37 -15 -23 c-53 -81 -113 -119 -186 -120 -75 0 -83 6 -77 57 6 51 -12
54 -23 4 -9 -41 -48 -74 -97 -80 -37 -5 -43 -10 -50 -38 -11 -44 -51 -73 -100
-73 -32 0 -47 7 -74 34 -19 19 -34 33 -34 33 -1 -1 -7 -37 -15 -80 -17 -100
-41 -142 -80 -142 -22 0 -33 8 -46 30 -26 43 -49 190 -50 314 l-1 106 -18 -55
c-16 -48 -21 -55 -41 -52 -32 3 -69 31 -96 72 -17 24 -23 47 -23 86 0 48 -3
55 -28 68 -94 48 -51 186 58 186 23 0 30 4 30 20 0 31 67 98 111 112 45 13
101 1 140 -31 23 -18 23 -18 52 21 29 40 93 77 135 78 12 0 39 -7 59 -15z
m1014 -42 c-19 -33 -250 -257 -257 -250 -6 5 251 264 264 267 1 0 -2 -8 -7
-17z m-1586 -43 c16 -16 24 -30 19 -30 -5 0 -21 14 -36 30 -14 17 -23 30 -19
30 4 0 20 -13 36 -30z m-115 -263 c0 -9 -87 38 -123 66 -12 9 11 0 50 -20 40
-21 73 -42 73 -46z m1885 67 c-52 -39 -338 -205 -343 -199 -10 10 17 27 197
127 157 88 183 100 146 72z m-1933 -320 c82 -20 148 -40 148 -45 0 -5 -5 -9
-11 -9 -13 0 -293 80 -298 86 -9 8 17 3 161 -32z m1978 20 c-165 -53 -376
-109 -379 -102 -1 5 -1 11 2 14 7 7 380 102 402 102 11 0 0 -7 -25 -14z m-754
-55 c13 -22 90 -49 142 -49 49 0 52 -2 52 -25 l0 -25 -310 0 c-200 0 -310 4
-310 10 0 6 13 10 28 10 15 0 33 5 40 12 9 9 21 9 50 0 83 -25 163 -11 239 42
55 39 59 40 69 25z m-956 -13 c41 -12 45 -16 47 -47 10 -140 41 -247 82 -283
34 -31 89 -25 123 13 16 17 28 38 28 46 0 8 5 15 10 15 6 0 10 -96 10 -267 0
-148 5 -379 10 -516 7 -172 7 -253 0 -267 -15 -28 -82 -44 -126 -30 -18 6 -38
19 -44 28 -5 9 -10 12 -10 5 0 -27 52 -53 106 -53 113 0 114 3 114 327 0 363
-17 737 -35 781 -8 19 -15 50 -15 69 l0 35 26 -16 c51 -34 148 -17 180 31 16
25 18 25 103 19 47 -4 102 -10 121 -14 l35 -6 -50 -7 c-27 -4 -79 -8 -115 -9
-95 -3 -37 -14 147 -29 82 -7 154 -14 161 -17 9 -3 7 -11 -8 -32 -20 -27 -21
-40 -21 -282 1 -139 3 -255 5 -257 2 -3 7 31 11 74 3 43 14 103 23 133 14 46
21 55 43 58 58 7 73 -72 104 -543 15 -232 15 -240 -3 -265 -10 -14 -35 -31
-56 -37 -32 -11 -290 -43 -346 -43 -11 0 -20 -4 -20 -10 0 -6 41 -10 102 -10
56 0 99 -2 97 -4 -2 -2 -59 -10 -126 -17 -67 -6 -120 -16 -117 -20 3 -5 53 -9
111 -9 59 0 104 -2 102 -4 -2 -2 -92 -9 -199 -16 -107 -7 -201 -16 -209 -20
-8 -4 73 -10 180 -14 263 -9 399 -17 399 -25 0 -3 -9 -21 -20 -38 -23 -38 -31
-39 -255 -23 -84 6 -169 6 -240 -1 -126 -11 -549 -38 -553 -34 -1 1 2 166 8
366 5 200 12 465 15 589 9 376 16 489 32 521 13 26 13 33 -1 61 -13 25 -23
108 -13 108 1 0 22 -6 47 -14z m-125 -206 c4 -7 -62 -9 -192 -8 -159 1 -180 3
-103 8 163 11 288 11 295 0z m1845 -42 c109 -50 179 -151 187 -268 6 -76 -18
-272 -46 -382 -25 -97 -71 -208 -117 -281 -42 -67 -56 -71 -20 -6 26 46 69
170 81 229 5 27 -2 18 -28 -35 -67 -137 -177 -280 -267 -349 -42 -32 -53 -36
-66 -25 -18 15 -29 35 -38 72 -6 25 -4 27 27 27 19 0 49 10 67 23 64 43 160
210 205 357 l26 85 -5 -65 c-3 -36 -12 -84 -20 -107 -23 -65 -9 -51 25 25 61
135 82 226 83 357 0 105 -2 126 -23 173 -45 101 -116 137 -256 130 -59 -3 -95
-11 -139 -31 -32 -15 -60 -27 -62 -27 -2 0 -4 30 -4 68 l0 67 167 -6 c152 -5
173 -8 223 -31z m113 35 c-7 -2 -21 -2 -30 0 -10 3 -4 5 12 5 17 0 24 -2 18
-5z m-1963 -207 c0 -9 -48 -25 -151 -50 -83 -20 -153 -35 -156 -33 -2 2 54 21
124 41 71 20 139 41 153 46 14 5 26 9 28 9 1 1 2 -5 2 -13z m1726 -31 c47 -14
84 -28 82 -31 -8 -7 -238 50 -238 60 0 12 54 2 156 -29z m-43 -265 c59 -36
107 -68 107 -72 0 -4 -33 13 -73 36 -41 24 -111 63 -155 86 -47 24 -82 48 -82
57 0 16 2 15 203 -107z m-1693 48 c0 -7 -12 -20 -28 -29 -107 -60 -182 -100
-182 -95 0 2 44 31 98 62 53 32 99 62 100 66 5 12 12 9 12 -4z m1565 -300 c76
-79 62 -75 -22 6 -45 43 -63 66 -50 66 2 0 34 -33 72 -72z m-1575 -58 c0 -5
-5 -10 -11 -10 -5 0 -7 5 -4 10 3 6 8 10 11 10 2 0 4 -4 4 -10z m1805 -555
c245 -26 283 -34 357 -71 97 -49 152 -119 165 -209 13 -98 -37 -183 -135 -233
l-58 -29 36 -57 c20 -31 39 -54 42 -51 3 4 5 -2 5 -12 -1 -10 4 -17 11 -15 8
1 11 -2 8 -7 -8 -13 4 -42 15 -35 5 3 9 2 8 -3 -3 -19 2 -34 10 -29 5 3 8 -2
7 -12 0 -9 5 -16 12 -14 8 1 11 -2 8 -7 -10 -16 56 -83 102 -103 41 -18 43
-21 40 -56 l-3 -37 -94 3 c-155 5 -178 24 -290 235 -66 126 -73 135 -103 140
-18 2 -34 4 -35 3 -2 -1 -5 -155 -4 -183 1 -15 9 -23 31 -28 29 -6 30 -8 24
-48 -4 -23 -8 -44 -10 -46 -2 -3 -64 3 -137 12 -72 9 -163 18 -200 19 -37 0
-70 5 -73 9 -2 4 -2 26 2 47 6 37 9 40 47 48 65 14 67 21 67 336 0 152 -3 283
-6 292 -3 9 -15 16 -25 16 -10 0 -19 6 -19 14 0 9 7 12 20 9 24 -6 27 12 4 21
-9 3 -29 6 -45 6 -17 0 -32 6 -35 15 -7 18 4 85 14 85 4 0 111 -11 237 -25z
m-1980 -44 c61 -34 79 -65 83 -142 3 -51 0 -74 -16 -105 -21 -42 -103 -124
-124 -125 -7 0 -2 -5 11 -10 20 -8 31 -5 60 19 63 50 94 105 99 170 3 42 -1
68 -12 90 -22 42 -11 41 14 0 27 -44 27 -135 1 -187 -11 -20 -37 -54 -59 -73
l-40 -36 44 -28 c58 -37 77 -79 72 -159 -5 -83 -52 -155 -134 -210 -88 -59
-172 -83 -341 -100 -81 -8 -193 -25 -248 -39 -55 -13 -101 -24 -102 -23 0 1 1
23 4 48 5 42 9 48 44 63 69 31 69 29 76 366 l6 303 -21 -5 c-12 -4 -25 -2 -28
4 -3 5 3 12 15 15 39 10 21 25 -26 21 -46 -3 -48 -2 -45 22 7 67 8 67 84 80
40 7 141 25 223 41 186 35 298 35 360 0z m868 -68 c-2 -7 -8 -55 -14 -108
l-12 -95 -44 -1 c-23 -1 -49 -2 -55 -3 -8 -1 -13 11 -13 29 l0 30 -80 0 -80 0
-8 -70 c-4 -38 -6 -74 -3 -80 2 -7 35 -8 102 -3 54 4 101 5 105 0 4 -4 3 -28
-2 -53 l-10 -46 -118 -5 c-65 -3 -123 -8 -130 -12 -12 -8 -16 -171 -5 -200 15
-39 24 -9 24 78 0 52 4 97 8 100 6 4 176 15 244 16 3 0 9 18 13 41 4 24 12 38
18 36 12 -4 13 -9 3 -67 l-6 -35 -117 -2 c-65 -2 -123 -5 -130 -8 -9 -3 -13
-30 -13 -91 l0 -87 74 5 c92 6 119 22 136 81 13 48 26 57 88 57 37 0 37 -1 22
-99 -6 -36 -13 -80 -16 -97 l-4 -31 -212 -8 c-117 -4 -253 -13 -303 -20 -49
-7 -92 -11 -94 -9 -2 2 0 19 3 38 5 27 15 39 44 53 22 11 39 28 43 43 11 39
10 492 0 485 -5 -3 -12 -1 -16 5 -3 5 1 10 10 10 9 0 15 6 12 13 -2 7 -19 11
-41 10 -34 -2 -36 -1 -36 30 0 18 4 37 8 43 4 7 99 16 252 24 135 7 247 14
250 17 2 2 27 3 55 1 33 -2 49 -7 48 -15z m729 -11 c4 -4 3 -27 -2 -52 -5 -25
-12 -71 -15 -102 l-6 -58 -55 0 -54 0 0 35 c0 31 -3 35 -33 40 -17 4 -55 5
-82 3 l-50 -3 -5 -78 -5 -77 102 0 c56 0 104 -4 107 -9 3 -4 2 -28 -2 -52 l-8
-44 -127 4 -128 4 3 -108 c2 -61 7 -110 13 -112 6 -2 9 32 7 93 l-3 96 131 -3
131 -4 6 38 c3 23 11 37 21 37 11 0 13 -7 8 -31 -3 -17 -6 -39 -6 -49 0 -15
-12 -16 -130 -12 l-130 5 0 -82 c0 -44 1 -84 3 -88 1 -5 36 -8 78 -8 90 0 116
16 125 77 l7 38 53 0 c29 0 55 -4 58 -8 2 -4 -3 -55 -13 -112 l-17 -105 -110
5 c-60 3 -196 5 -302 5 l-193 0 3 39 c3 35 7 41 33 48 16 4 36 15 42 25 18 24
18 499 1 507 -10 5 -10 7 0 12 21 10 2 24 -34 24 -29 0 -34 3 -34 24 0 62 -16
60 309 52 163 -4 299 -10 303 -14z m-679 -40 c-1 -5 -7 -50 -14 -100 -11 -89
-12 -90 -41 -96 -44 -9 -78 -7 -78 3 0 6 20 13 44 16 l43 7 7 71 c7 89 15 119
30 114 6 -3 10 -9 9 -15z m720 -117 c-8 -55 -16 -100 -16 -101 -1 0 -23 1 -49
4 -57 5 -64 22 -10 22 l38 0 11 85 c12 89 20 112 33 98 4 -4 1 -53 -7 -108z
m914 -71 c10 -95 -48 -181 -152 -226 -16 -7 -33 -17 -36 -22 -4 -5 -12 1 -18
12 -9 18 -8 22 12 28 40 12 113 66 136 100 39 57 45 136 17 219 -4 11 2 3 14
-19 12 -21 24 -62 27 -92z m-797 -81 l-1 -198 -37 43 c-27 31 -45 42 -64 42
-30 0 -31 2 -22 49 6 27 11 31 39 31 l32 0 6 102 c4 82 9 105 23 115 10 7 19
13 21 13 2 0 3 -89 3 -197z m-1515 11 c8 -13 15 -40 14 -61 0 -34 -2 -36 -12
-19 -7 11 -27 36 -45 57 l-33 37 23 47 23 47 7 -42 c4 -24 14 -53 23 -66z
m742 59 c-3 -10 -5 -4 -5 12 0 17 2 24 5 18 2 -7 2 -21 0 -30z m13 -84 c0 -16
-7 -19 -45 -19 -33 0 -45 4 -45 15 0 10 10 15 29 15 17 0 33 5 36 10 9 15 25
2 25 -21z m-6 -104 c3 -8 1 -15 -3 -15 -5 0 -11 7 -15 15 -3 8 -1 15 3 15 5 0
11 -7 15 -15z m-819 -25 c8 -16 15 -53 15 -83 0 -105 -78 -205 -205 -263 -59
-27 -185 -54 -252 -54 -66 0 -172 -16 -271 -41 -76 -19 -106 -20 -89 -3 15 15
175 45 314 59 210 20 309 55 396 141 69 68 103 173 79 243 -14 39 -7 40 13 1z
m510 -80 c-3 -5 -17 -10 -31 -10 -13 0 -24 5 -24 10 0 6 14 10 31 10 17 0 28
-4 24 -10z m735 0 c0 -5 -11 -10 -25 -10 -14 0 -25 5 -25 10 0 6 11 10 25 10
14 0 25 -4 25 -10z m-490 -17 c0 -10 -7 -58 -15 -108 -8 -49 -15 -93 -15 -97
0 -5 -87 -8 -193 -8 -171 0 -315 -10 -385 -26 -17 -3 -23 -1 -20 8 7 21 70 28
328 36 l244 7 18 100 c9 55 17 101 17 103 3 11 21 -2 21 -15z m827 -15 c-3 -8
-6 -5 -6 6 -1 11 2 17 5 13 3 -3 4 -12 1 -19z m-87 0 c-1 -2 -9 -50 -18 -108
l-18 -105 -34 1 c-19 0 -120 6 -223 13 -104 7 -226 9 -270 5 -69 -5 -80 -4
-69 7 16 17 299 17 461 0 113 -12 121 -10 121 38 0 58 22 151 36 151 8 0 14
-1 14 -2z m524 -230 c-4 -24 -7 -44 -8 -44 -1 -1 -39 4 -86 12 -47 7 -136 17
-198 22 -107 8 -133 14 -119 28 3 3 75 -2 159 -12 219 -25 222 -25 226 9 2 15
9 27 18 27 11 0 13 -9 8 -42z m476 -75 c0 -49 -8 -52 -95 -42 -108 12 -126 16
-155 40 l-25 20 30 -14 c17 -8 71 -18 121 -21 l92 -7 6 25 c8 34 26 33 26 -1z"/>
<path d="M3547 4129 c-40 -23 -47 -67 -47 -296 0 -120 4 -224 9 -232 5 -8 11
57 16 165 8 216 9 221 35 249 22 24 70 38 94 29 24 -9 37 -55 42 -148 26 -511
29 -689 15 -764 -10 -53 -50 -97 -115 -127 l-48 -23 56 -7 c76 -10 117 0 154
36 55 54 56 63 48 534 -9 504 -12 539 -50 571 -24 21 -37 24 -109 24 -45 0
-90 -5 -100 -11z"/>
<path d="M4757 2523 c-11 -160 -9 -203 8 -203 12 0 15 17 15 94 0 51 3 114 6
140 7 46 7 47 38 41 50 -10 125 -36 131 -45 3 -4 -16 -2 -42 6 -52 16 -89 18
-97 6 -2 -4 -8 -62 -12 -129 l-7 -122 39 -7 c56 -11 72 -8 115 20 72 48 77
153 11 224 -38 40 -113 72 -172 72 -27 0 -27 0 -33 -97z m173 -108 c0 -24 -22
-49 -33 -38 -4 3 -7 27 -7 51 0 44 0 45 20 27 11 -10 20 -28 20 -40z"/>
<path d="M4750 2087 c0 -79 4 -118 13 -125 9 -8 11 13 9 100 l-4 111 46 -7
c39 -6 45 -5 40 8 -4 10 -18 16 -39 16 -18 0 -40 3 -49 6 -14 5 -16 -8 -16
-109z"/>
<path d="M2393 2594 c-28 -6 -30 -17 -38 -161 -6 -95 -4 -113 8 -113 11 0 16
25 21 118 4 64 11 121 17 127 5 5 43 9 83 10 47 0 69 3 59 9 -18 10 -119 16
-150 10z"/>
<path d="M2427 2546 c-9 -10 -16 -50 -21 -116 -4 -56 -5 -104 -3 -106 1 -2 27
0 55 5 58 9 92 34 116 86 19 39 21 116 4 133 -17 17 -133 16 -151 -2z m83 -88
c0 -7 -5 -20 -10 -28 -8 -12 -10 -9 -10 13 0 15 5 27 10 27 6 0 10 -6 10 -12z"/>
<path d="M2419 2207 l-67 -9 -6 -37 c-11 -69 -7 -198 7 -210 11 -9 14 9 16
101 1 61 4 115 7 119 5 9 129 24 164 20 14 -2 32 -7 40 -13 11 -7 9 -8 -10 -4
-35 8 -163 -12 -172 -27 -4 -6 -8 -59 -8 -116 l0 -104 62 7 c111 13 166 57
176 142 3 32 -1 51 -17 77 -33 53 -86 68 -192 54z m115 -123 c24 -9 19 -39 -9
-52 -42 -19 -55 -15 -55 17 0 36 26 50 64 35z"/>
<path d="M3275 2530 l-40 -5 -6 -60 c-12 -109 -10 -145 6 -145 12 0 15 15 15
76 0 111 3 114 107 114 54 0 83 4 78 9 -12 12 -107 18 -160 11z"/>
<path d="M3966 2528 c-3 -7 -7 -55 -10 -105 -4 -73 -2 -93 8 -93 10 0 15 26
21 91 l7 91 89 -4 c95 -4 108 9 22 23 -74 12 -133 11 -137 -3z"/>
<path d="M5085 5735 c-71 -40 -131 -77 -133 -83 -1 -5 9 -19 24 -31 25 -19 29
-20 44 -6 16 14 22 13 69 -16 34 -21 50 -37 46 -47 -18 -48 -16 -61 10 -78 15
-10 29 -13 34 -8 5 5 32 70 61 146 l52 136 -33 31 c-19 17 -36 30 -39 30 -3
-1 -63 -34 -135 -74z m100 -68 c-8 -20 -17 -37 -20 -37 -12 0 -55 24 -55 31 0
10 84 57 88 49 1 -4 -4 -23 -13 -43z"/>
<path d="M2122 5768 c-20 -20 -14 -53 14 -79 14 -13 34 -36 45 -50 l19 -27
-73 19 c-84 22 -118 24 -135 7 -23 -23 -11 -44 82 -143 l93 -99 26 17 c15 10
27 23 27 29 0 7 -23 36 -52 65 -29 29 -47 53 -41 53 7 0 49 -9 94 -20 l83 -20
23 22 c13 12 22 25 21 29 -5 13 -199 209 -207 209 -4 0 -12 -5 -19 -12z"/>
<path d="M5325 5503 c-55 -47 -102 -90 -103 -95 -2 -5 18 -34 45 -65 26 -30
58 -67 70 -82 21 -26 21 -26 42 -7 28 26 26 34 -19 86 l-39 44 22 24 c12 13
50 47 85 75 34 28 62 54 62 59 0 13 -39 48 -52 48 -7 0 -58 -39 -113 -87z"/>
<path d="M1860 5484 c-10 -18 -11 -30 -4 -42 14 -22 196 -171 210 -172 5 0 20
13 32 29 l21 29 -113 91 c-62 50 -118 91 -123 91 -5 0 -16 -12 -23 -26z"/>
<path d="M1806 5228 c-21 -29 -20 -41 2 -61 27 -24 59 -21 78 8 15 23 15 27 0
50 -21 32 -59 33 -80 3z"/>
<path d="M5514 5225 c-20 -31 -10 -63 23 -71 50 -13 86 30 60 70 -23 34 -61
34 -83 1z"/>
<path d="M3073 1421 l2 -239 65 -6 c100 -9 142 -7 198 9 99 30 156 105 168
222 8 76 -15 158 -53 195 -51 49 -90 58 -242 58 l-140 0 2 -239z m232 123 c28
-11 45 -60 45 -129 0 -106 -34 -146 -105 -126 l-30 8 4 119 c2 65 5 122 8 127
5 9 55 9 78 1z"/>
<path d="M3650 1655 c0 -3 -31 -109 -70 -235 -38 -126 -70 -232 -70 -235 0 -3
31 -5 70 -5 68 0 70 1 76 28 3 15 7 33 10 40 2 8 25 12 69 12 l65 0 6 -40 7
-40 73 0 c53 0 74 4 74 13 -1 6 -29 113 -63 237 l-63 225 -92 3 c-51 1 -92 0
-92 -3z m109 -192 c17 -88 16 -93 -24 -93 -19 0 -35 5 -35 10 0 24 33 140 40
140 4 0 12 -26 19 -57z"/>
<path d="M3934 1628 c7 -18 41 -93 75 -167 61 -130 62 -135 59 -207 l-3 -74
73 0 72 0 0 77 0 76 86 164 85 164 -77 -3 -77 -3 -37 -85 c-21 -47 -41 -84
-46 -82 -10 4 -64 139 -64 159 0 10 -22 13 -80 13 l-80 0 14 -32z"/>
<path d="M2590 1559 c0 -6 5 -30 11 -53 8 -31 18 -47 37 -57 l27 -13 -28 -4
c-46 -6 -57 3 -57 47 0 45 -19 64 -77 76 -37 7 -39 2 -22 -57 6 -24 20 -43 37
-53 l27 -14 -42 -1 -42 0 -3 47 c-3 51 -19 66 -86 79 l-30 6 10 -43 c6 -26 21
-53 37 -66 l26 -23 -31 0 c-26 0 -33 5 -39 27 -10 41 -24 53 -59 53 -18 0 -41
7 -52 15 -32 24 -41 16 -9 -9 41 -33 26 -42 -24 -16 -53 26 -53 18 -1 -11 l40
-22 -30 -19 c-17 -10 -43 -18 -58 -19 -15 0 -36 -4 -47 -9 -15 -6 -7 -9 30
-10 35 0 58 -7 75 -21 14 -12 20 -22 14 -25 -6 -3 -20 -11 -30 -19 -16 -13
-13 -13 19 0 42 17 50 4 12 -21 -14 -9 -24 -19 -21 -21 3 -3 15 2 28 11 12 9
37 16 54 16 35 0 49 12 59 53 6 23 12 27 44 27 l36 0 -31 -19 c-23 -14 -33
-30 -38 -56 -4 -20 -10 -43 -13 -50 -4 -12 4 -12 44 2 66 22 73 29 73 79 l0
44 40 0 c46 0 51 -6 16 -20 -24 -9 -46 -58 -46 -102 0 -15 3 -16 44 -2 55 19
64 29 68 79 3 39 4 40 42 43 l40 3 -32 -29 c-18 -17 -32 -38 -32 -49 0 -10 -3
-28 -6 -40 l-6 -23 48 16 c60 20 74 37 74 86 l0 38 43 0 42 0 -31 -19 c-23
-14 -33 -30 -38 -56 -4 -20 -10 -43 -12 -50 -5 -11 2 -11 42 1 64 19 74 30 74
80 l0 44 41 0 c24 0 38 -4 34 -10 -3 -5 -13 -10 -20 -10 -18 0 -31 -24 -41
-74 l-7 -39 34 7 c57 11 77 31 81 78 2 36 7 44 26 46 12 2 22 7 22 12 0 5 -10
10 -22 12 -19 2 -24 10 -26 46 -3 47 -22 65 -79 77 -37 7 -39 2 -22 -57 6 -24
20 -43 37 -53 l27 -14 -42 -1 -43 0 0 44 c0 50 -7 57 -73 79 -45 15 -48 15
-43 -1 2 -9 8 -32 11 -50 5 -23 17 -40 38 -53 l32 -19 -42 0 -43 0 0 38 c0 21
-6 45 -12 54 -16 19 -108 51 -108 37z"/>
<path d="M4640 1551 c-66 -23 -70 -28 -70 -77 l0 -44 -42 0 -43 1 27 14 c17
10 31 29 37 53 17 59 15 64 -21 57 -58 -12 -77 -30 -80 -77 -2 -36 -7 -44 -25
-46 -13 -2 -23 -7 -23 -12 0 -5 10 -10 23 -12 18 -2 23 -10 25 -45 4 -48 11
-56 70 -76 48 -17 50 -13 31 56 -7 26 -18 41 -35 47 -35 14 -30 20 16 20 l40
0 0 -44 c0 -50 7 -57 73 -79 45 -15 48 -15 43 1 -2 9 -8 32 -11 50 -5 23 -17
40 -38 53 l-32 19 43 0 42 0 0 -38 c0 -21 6 -45 13 -54 17 -22 107 -51 107
-35 0 34 -23 85 -47 105 l-28 23 40 -3 c39 -3 40 -4 43 -43 4 -50 13 -60 68
-79 41 -14 44 -13 44 2 0 44 -22 93 -46 102 -35 14 -30 20 16 20 l40 0 0 -44
c0 -50 7 -57 73 -79 40 -14 48 -14 44 -2 -3 7 -9 30 -13 50 -5 26 -15 42 -38
56 l-31 19 36 0 c32 0 38 -4 44 -27 10 -41 24 -53 59 -53 18 0 41 -7 52 -15
31 -24 37 -17 7 9 -36 31 -25 43 19 21 l33 -16 -25 20 c-14 11 -29 21 -35 21
-5 0 5 9 23 20 20 12 50 20 80 20 34 0 43 3 32 10 -8 5 -31 10 -50 10 -19 0
-47 8 -62 18 l-28 18 40 23 c52 29 52 37 -1 11 -50 -26 -65 -17 -24 16 32 25
23 33 -9 9 -11 -8 -34 -15 -52 -15 -35 0 -49 -12 -59 -53 -6 -22 -13 -27 -39
-27 l-31 0 26 23 c15 12 30 36 33 52 4 17 9 38 12 47 5 16 2 16 -43 1 -66 -22
-73 -29 -73 -79 l0 -44 -42 0 -43 1 27 14 c17 10 31 29 37 53 17 59 15 64 -21
57 -58 -12 -77 -30 -80 -77 -3 -42 -4 -43 -43 -46 l-40 -3 28 23 c24 20 47 71
47 105 0 16 -90 -13 -107 -35 -7 -9 -13 -33 -13 -54 l0 -38 -42 0 -43 0 31 19
c23 14 33 30 41 67 6 27 11 49 10 50 -1 1 -22 -6 -47 -15z"/>
</g>
</svg>
